PathFileType  4	(X/Y/Z) /dataNAS/people/anoopai/OpenCap/opencap-core/Examples/Data/d712a0c6-d1a0-423f-8dc2-b78d41b5c55e/MarkerData/PreAugmentation
DataRate	CameraRate	NumFrames	NumMarkers	Units	OrigDataRate	OrigDataStartFrame	OrigNumFrames
60.0	60.0	12	20	m	60.0	438	874
Frame#	Time	Neck			RShoulder			RElbow			RWrist			LShoulder			LElbow			LWrist			midHip			RHip			RKnee			RAnkle			LHip			LKnee			LAnkle			LBigToe			LSmallToe			LHeel			RBigToe			RSmallToe			RHeel			
		X1	Y1	Z1	X2	Y2	Z2	X3	Y3	Z3	X4	Y4	Z4	X5	Y5	Z5	X6	Y6	Z6	X7	Y7	Z7	X8	Y8	Z8	X9	Y9	Z9	X10	Y10	Z10	X11	Y11	Z11	X12	Y12	Z12	X13	Y13	Z13	X14	Y14	Z14	X15	Y15	Z15	X16	Y16	Z16	X17	Y17	Z17	X18	Y18	Z18	X19	Y19	Z19	X20	Y20	Z20	

438	7.2833333	-0.4617900	0.3958300	-0.4457300	-0.3627100	0.4090500	-0.5584500	-0.0953400	0.3504300	-0.5151600	-0.2663500	0.2201200	-0.6820600	-0.5507200	0.3851200	-0.3259600	-0.3999900	0.2803500	-0.1193900	-0.6761500	0.1428300	-0.2499000	-0.0330600	0.2032400	-0.2433300	0.0200200	0.2071200	-0.3320400	0.2345600	-0.1673000	-0.2921900	0.6478400	-0.2193900	-0.0731100	-0.0811300	0.2021200	-0.1520700	0.1282400	-0.1631800	-0.0318900	0.5678500	-0.1942300	0.0884400	0.7028200	-0.3649600	0.1448800	0.7032300	-0.3635000	0.1456000	0.6347800	-0.1719900	0.0961000	0.7039200	-0.4283300	-0.0687900	0.7043400	-0.4278000	-0.0689100	0.7029300	-0.2016000	-0.0273300
439	7.3000000	-0.4654700	0.3910500	-0.4472900	-0.3653400	0.4048500	-0.5596300	-0.1014100	0.3473800	-0.5172700	-0.2578700	0.2178000	-0.6816000	-0.5555100	0.3796800	-0.3278400	-0.4016000	0.2756700	-0.1204500	-0.6787800	0.1362700	-0.2511600	-0.0358900	0.2016700	-0.2445500	0.0171600	0.2056800	-0.3333800	0.2343300	-0.1674100	-0.2921300	0.6475400	-0.2187400	-0.0734800	-0.0839600	0.2002400	-0.1531600	0.1273000	-0.1635200	-0.0324900	0.5674700	-0.1947000	0.0883700	0.7040400	-0.3645600	0.1450500	0.7070500	-0.3634200	0.1460700	0.6337100	-0.1726700	0.0961200	0.7030000	-0.4269300	-0.0700100	0.7033800	-0.4264200	-0.0701300	0.7031900	-0.2010500	-0.0275300
440	7.3166667	-0.4694000	0.3862300	-0.4490900	-0.3684900	0.4005300	-0.5613200	-0.1067000	0.3436900	-0.5192200	-0.2541900	0.2136900	-0.6815000	-0.5602600	0.3743700	-0.3297000	-0.4034300	0.2711400	-0.1214600	-0.6825400	0.1300600	-0.2529800	-0.0387500	0.2001600	-0.2458800	0.0143300	0.2043600	-0.3348000	0.2341500	-0.1674200	-0.2920200	0.6474000	-0.2185300	-0.0737400	-0.0869800	0.1986600	-0.1544300	0.1265500	-0.1638700	-0.0330900	0.5667600	-0.1943300	0.0880100	0.7025600	-0.3629800	0.1447700	0.7087300	-0.3612600	0.1459200	0.6324200	-0.1724500	0.0960100	0.7030300	-0.4267900	-0.0704300	0.7033600	-0.4262900	-0.0705600	0.7032300	-0.2004700	-0.0278000
441	7.3333333	-0.4735900	0.3813200	-0.4511100	-0.3721400	0.3959600	-0.5634600	-0.1113900	0.3400400	-0.5212100	-0.2550600	0.2074600	-0.6817000	-0.5649600	0.3691100	-0.3315600	-0.4054600	0.2666300	-0.1224300	-0.6867700	0.1245000	-0.2551800	-0.0416300	0.1988500	-0.2473300	0.0116300	0.2031900	-0.3363000	0.2342000	-0.1677600	-0.2918000	0.6470500	-0.2180200	-0.0740700	-0.0901000	0.1969500	-0.1558100	0.1259800	-0.1642100	-0.0336900	0.5660600	-0.1937900	0.0876100	0.6992300	-0.3624400	0.1446600	0.7103800	-0.3605100	0.1461100	0.6315900	-0.1725500	0.0961000	0.7032300	-0.4265800	-0.0705100	0.7035400	-0.4261100	-0.0706300	0.7031100	-0.1998200	-0.0280600
442	7.3500000	-0.4779800	0.3763000	-0.4533400	-0.3761800	0.3911200	-0.5659500	-0.1156000	0.3358300	-0.5232400	-0.2600300	0.1996600	-0.6823100	-0.5696500	0.3639100	-0.3334800	-0.4078200	0.2626500	-0.1235300	-0.6910700	0.1207700	-0.2579100	-0.0444300	0.1976600	-0.2488800	0.0091600	0.2020800	-0.3378300	0.2342000	-0.1681300	-0.2916200	0.6468200	-0.2177800	-0.0742900	-0.0933000	0.1951000	-0.1573100	0.1255900	-0.1645500	-0.0342800	0.5655600	-0.1934900	0.0872700	0.6935200	-0.3621300	0.1445200	0.7114200	-0.3599800	0.1463300	0.6309500	-0.1723400	0.0961200	0.7030800	-0.4254500	-0.0705600	0.7033600	-0.4249900	-0.0706800	0.7030400	-0.1993900	-0.0281800
443	7.3666667	-0.4825000	0.3711500	-0.4557500	-0.3804700	0.3860300	-0.5686900	-0.1196100	0.3310600	-0.5253700	-0.2682500	0.1903800	-0.6832800	-0.5743400	0.3587800	-0.3355300	-0.4102800	0.2582500	-0.1246800	-0.6945400	0.1162400	-0.2600600	-0.0471300	0.1966600	-0.2505300	0.0070100	0.2010800	-0.3393800	0.2339900	-0.1684600	-0.2915200	0.6467100	-0.2177500	-0.0744300	-0.0967000	0.1937600	-0.1590300	0.1253000	-0.1648300	-0.0348600	0.5653400	-0.1937500	0.0870700	0.6857500	-0.3618900	0.1444200	0.7120000	-0.3596400	0.1465700	0.6307100	-0.1725700	0.0962100	0.7035400	-0.4253400	-0.0699800	0.7038100	-0.4249100	-0.0701000	0.7029400	-0.1989400	-0.0282300
444	7.3833333	-0.4870500	0.3659000	-0.4583100	-0.3848100	0.3805900	-0.5715500	-0.1236000	0.3258700	-0.5276200	-0.2785700	0.1794300	-0.6844500	-0.5790100	0.3537000	-0.3377500	-0.4129500	0.2541900	-0.1260300	-0.6969200	0.1114600	-0.2616500	-0.0495400	0.1948700	-0.2521000	0.0052600	0.1995700	-0.3408100	0.2331700	-0.1680800	-0.2917300	0.6464200	-0.2174000	-0.0746300	-0.1000900	0.1919400	-0.1608000	0.1250700	-0.1650900	-0.0354200	0.5646600	-0.1929000	0.0864200	0.6785800	-0.3645400	0.1450800	0.7122600	-0.3594400	0.1468400	0.6301900	-0.1719900	0.0959200	0.7040700	-0.4255200	-0.0691400	0.7043200	-0.4250900	-0.0692600	0.7029800	-0.1987800	-0.0281300
445	7.4000000	-0.4914800	0.3605400	-0.4609500	-0.3890500	0.3749100	-0.5744300	-0.1275500	0.3201400	-0.5298700	-0.2902300	0.1688400	-0.6859200	-0.5835900	0.3487100	-0.3401200	-0.4157100	0.2501600	-0.1275300	-0.6985000	0.1102000	-0.2637300	-0.0518000	0.1930600	-0.2536700	0.0038000	0.1980500	-0.3421700	0.2328200	-0.1687500	-0.2917000	0.6462100	-0.2172900	-0.0748000	-0.1034200	0.1898700	-0.1626300	0.1249000	-0.1653400	-0.0359400	0.5644200	-0.1930500	0.0860800	0.6705400	-0.3653100	0.1454400	0.7123100	-0.3593300	0.1471300	0.6299900	-0.1721600	0.0957000	0.7036100	-0.4243100	-0.0687300	0.7038400	-0.4238600	-0.0688600	0.7027100	-0.1980400	-0.0281700
446	7.4166667	-0.4957200	0.3550700	-0.4636000	-0.3930600	0.3689700	-0.5772600	-0.1313900	0.3142600	-0.5320500	-0.3018200	0.1571000	-0.6871900	-0.5879700	0.3436900	-0.3425500	-0.4186200	0.2463200	-0.1292000	-0.6981400	0.1086100	-0.2648000	-0.0540000	0.1917700	-0.2552700	0.0025300	0.1967200	-0.3434500	0.2322200	-0.1691000	-0.2918100	0.6461200	-0.2175200	-0.0749100	-0.1067500	0.1882300	-0.1645000	0.1248000	-0.1654800	-0.0364200	0.5640200	-0.1927300	0.0855400	0.6603200	-0.3599700	0.1448800	0.7122300	-0.3592900	0.1474300	0.6296100	-0.1720100	0.0952000	0.7038800	-0.4248100	-0.0676700	0.7041200	-0.4244100	-0.0678000	0.7026000	-0.1977300	-0.0281000
447	7.4333333	-0.4997000	0.3495200	-0.4662100	-0.3968500	0.3630200	-0.5800500	-0.1349700	0.3081800	-0.5340800	-0.3130200	0.1462900	-0.6883100	-0.5921000	0.3386700	-0.3449600	-0.4216800	0.2423100	-0.1309100	-0.6953800	0.1052300	-0.2643700	-0.0559600	0.1897500	-0.2566400	0.0015400	0.1947400	-0.3444400	0.2315600	-0.1692900	-0.2919800	0.6457900	-0.2174000	-0.0751800	-0.1098800	0.1859300	-0.1662400	0.1248900	-0.1655600	-0.0367800	0.5636500	-0.1923600	0.0849900	0.6548100	-0.3589400	0.1452600	0.7120900	-0.3592800	0.1477600	0.6292200	-0.1719300	0.0945500	0.7037900	-0.4249100	-0.0667600	0.7041400	-0.4247300	-0.0668100	0.7025300	-0.1975800	-0.0280300
448	7.4500000	-0.5034000	0.3438500	-0.4686900	-0.4003400	0.3568300	-0.5826900	-0.1382400	0.3019600	-0.5359500	-0.3232200	0.1347700	-0.6890200	-0.5959400	0.3335000	-0.3472500	-0.4250300	0.2381300	-0.1326100	-0.6913500	0.1037100	-0.2639200	-0.0578600	0.1877300	-0.2578800	0.0005900	0.1929000	-0.3452800	0.2306000	-0.1688500	-0.2923500	0.6456100	-0.2175600	-0.0754100	-0.1129300	0.1838800	-0.1679000	0.1252100	-0.1654700	-0.0370100	0.5635700	-0.1926300	0.0846500	0.6514700	-0.3579600	0.1456300	0.7119300	-0.3593000	0.1481000	0.6288900	-0.1721500	0.0938300	0.7035700	-0.4247300	-0.0659500	0.7037900	-0.4243500	-0.0660900	0.7024400	-0.1973300	-0.0280100
449	7.4666667	-0.5068100	0.3381000	-0.4710000	-0.4035200	0.3506800	-0.5851800	-0.1412300	0.2956600	-0.5377500	-0.3329400	0.1246900	-0.6896800	-0.5995300	0.3282400	-0.3493600	-0.4287900	0.2335600	-0.1342100	-0.6857800	0.0974100	-0.2617300	-0.0597200	0.1855800	-0.2589600	-0.0003400	0.1908000	-0.3459200	0.2299000	-0.1688800	-0.2925700	0.6452700	-0.2172600	-0.0757700	-0.1158400	0.1816700	-0.1693800	0.1258200	-0.1652900	-0.0370600	0.5633300	-0.1926100	0.0842200	0.6500800	-0.3571300	0.1459200	0.7117600	-0.3593300	0.1484500	0.6284400	-0.1724100	0.0930300	0.7035300	-0.4244800	-0.0651700	0.7037200	-0.4241000	-0.0653200	0.7024700	-0.1972200	-0.0279900
